<?xml version="1.0" encoding="utf-8"?>
<!-- Generator: Adobe Illustrator 16.0.4, SVG Export Plug-In . SVG Version: 6.00 Build 0)  -->
<!DOCTYPE svg PUBLIC "-//W3C//DTD SVG 1.1//EN" "http://www.w3.org/Graphics/SVG/1.1/DTD/svg11.dtd">
<svg version="1.1" id="Layer_1" xmlns="http://www.w3.org/2000/svg" xmlns:xlink="http://www.w3.org/1999/xlink" x="0px" y="0px"
	 width="496px" height="920px" viewBox="0 0 496 920" enable-background="new 0 0 496 920" xml:space="preserve">
<g>
	<path fill="#FFFFFF" stroke="#4D4E53" stroke-width="2" stroke-miterlimit="10" d="M0,16.068c0-8.837,7.163-16,16-16h464
		c8.836,0,16,7.163,16,16v888c0,8.836-7.164,16-16,16H16c-8.837,0-16-7.164-16-16V16.068z"/>
	<line fill="#FFFFFF" stroke="#4D4E53" stroke-width="2" stroke-miterlimit="10" x1="0" y1="64.068" x2="496" y2="64.068"/>
	<text transform="matrix(1 0 0 1 13 94.5049)" fill="#4D4E53" font-family="'MyriadPro-Semibold'" font-size="28">Question (QD)</text>
	<text transform="matrix(1 0 0 1 21 123.1562)" fill="#9D9EA3" font-family="'MyriadPro-It'" font-size="24">(no records)</text>
	<text transform="matrix(1 0 0 1 13 158.5049)" fill="#4D4E53" font-family="'MyriadPro-Semibold'" font-size="28">Answer (AN)</text>
	<polygon fill="#D7D3C8" stroke="#4D4E53" stroke-width="0.25" stroke-miterlimit="10" points="153.564,199.978 487,199.978 
		487,323.978 9,323.978 9,199.978 25,199.978 33.282,169.068 145.281,169.068 	"/>
	<rect x="14" y="224.978" fill="#4D4E53" width="468" height="32"/>
	<text transform="matrix(1 0 0 1 18 248.4922)" fill="#FFFFFF" font-family="'AndaleMono'" font-size="24">_flyweb._tcp._local</text>
	<text transform="matrix(1 0 0 1 14 219.7178)" fill="#4D4E53" font-family="'MyriadPro-SemiboldIt'" font-size="20">Name</text>
	<text transform="matrix(1 0 0 1 38 192.9775)" fill="#4D4E53" font-family="'MyriadPro-Regular'" font-size="22">PTR Record</text>
	<rect x="13.999" y="286.522" fill="#4D4E53" width="468.001" height="32"/>
	<text transform="matrix(1 0 0 1 17.999 310.0371)" fill="#FFFFFF" font-family="'AndaleMono'" font-size="24">Hello FlyWeb._flyweb._tcp._local</text>
	<text transform="matrix(1 0 0 1 13.999 281.2627)" fill="#4D4E53" font-family="'MyriadPro-SemiboldIt'" font-size="20">Data</text>
	<text transform="matrix(1 0 0 1 13 356.5049)" fill="#4D4E53" font-family="'MyriadPro-Semibold'" font-size="28">Authority (NS)</text>
	<text transform="matrix(1 0 0 1 21 385.1562)" fill="#9D9EA3" font-family="'MyriadPro-It'" font-size="24">(no records)</text>
	<text transform="matrix(1 0 0 1 13 420.5049)" fill="#4D4E53" font-family="'MyriadPro-Semibold'" font-size="28">Additional (AR)</text>
	<polygon fill="#D7D3C8" stroke="#4D4E53" stroke-width="0.25" stroke-miterlimit="10" points="153.564,461.979 487,461.979 
		487,585.977 9,585.977 9,461.979 25,461.979 33.282,431.068 145.281,431.068 	"/>
	<rect x="14" y="486.979" fill="#4D4E53" width="468" height="31.998"/>
	<text transform="matrix(1 0 0 1 18 510.4922)" fill="#FFFFFF" font-family="'AndaleMono'" font-size="24">Hello FlyWeb._flyweb._tcp._local</text>
	<text transform="matrix(1 0 0 1 14 481.7178)" fill="#4D4E53" font-family="'MyriadPro-SemiboldIt'" font-size="20">Name</text>
	<text transform="matrix(1 0 0 1 38 454.9775)" fill="#4D4E53" font-family="'MyriadPro-Regular'" font-size="22">SRV Record</text>
	<rect x="13.999" y="548.523" fill="#4D4E53" width="468.001" height="32"/>
	<text transform="matrix(1 0 0 1 17.999 572.0371)" fill="#FFFFFF" font-family="'AndaleMono'" font-size="24">{target: MyPC.local, port: 1234}</text>
	<text transform="matrix(1 0 0 1 13.999 543.2627)" fill="#4D4E53" font-family="'MyriadPro-SemiboldIt'" font-size="20">Data</text>
	<polygon fill="#D7D3C8" stroke="#4D4E53" stroke-width="0.25" stroke-miterlimit="10" points="153.564,624.889 487,624.889 
		487,748.887 9,748.887 9,624.889 25,624.889 33.282,593.979 145.281,593.979 	"/>
	<rect x="14" y="649.889" fill="#4D4E53" width="468" height="31.998"/>
	<text transform="matrix(1 0 0 1 18 673.4023)" fill="#FFFFFF" font-family="'AndaleMono'" font-size="24">My-PC.local</text>
	<text transform="matrix(1 0 0 1 14 644.6279)" fill="#4D4E53" font-family="'MyriadPro-SemiboldIt'" font-size="20">Name</text>
	<text transform="matrix(1 0 0 1 46 617.8877)" fill="#4D4E53" font-family="'MyriadPro-Regular'" font-size="22">A Record</text>
	<rect x="13.999" y="711.434" fill="#4D4E53" width="468.001" height="32"/>
	<text transform="matrix(1 0 0 1 17.999 734.9473)" fill="#FFFFFF" font-family="'AndaleMono'" font-size="24">192.168.1.102</text>
	<text transform="matrix(1 0 0 1 13.999 706.1729)" fill="#4D4E53" font-family="'MyriadPro-SemiboldIt'" font-size="20">Data</text>
	<polygon fill="#D7D3C8" stroke="#4D4E53" stroke-width="0.25" stroke-miterlimit="10" points="153.564,787.797 487,787.797 
		487,911.795 9,911.795 9,787.797 25,787.797 33.282,756.887 145.281,756.887 	"/>
	<rect x="14" y="812.797" fill="#4D4E53" width="468" height="31.998"/>
	<text transform="matrix(1 0 0 1 18 836.3105)" fill="#FFFFFF" font-family="'AndaleMono'" font-size="24">Hello FlyWeb._flyweb._tcp._local</text>
	<text transform="matrix(1 0 0 1 14 807.5361)" fill="#4D4E53" font-family="'MyriadPro-SemiboldIt'" font-size="20">Name</text>
	<text transform="matrix(1 0 0 1 38 780.7959)" fill="#4D4E53" font-family="'MyriadPro-Regular'" font-size="22">TXT Record</text>
	<rect x="13.999" y="874.342" fill="#4D4E53" width="468.001" height="32"/>
	<text transform="matrix(1 0 0 1 17.999 897.8555)" fill="#FFFFFF" font-family="'AndaleMono'" font-size="24">{uiUrl: “/controls.html”}</text>
	<text transform="matrix(1 0 0 1 13.999 869.0811)" fill="#4D4E53" font-family="'MyriadPro-SemiboldIt'" font-size="20">Data</text>
	<g>
		<text transform="matrix(1 0 0 1 8 48.0684)" fill="#4D4E53" font-family="'MyriadPro-Semibold'" font-size="44">mDNS Response Packet</text>
	</g>
</g>
</svg>
