<?xml version="1.0" encoding="utf-8"?>
<!-- Generator: Adobe Illustrator 16.0.4, SVG Export Plug-In . SVG Version: 6.00 Build 0)  -->
<!DOCTYPE svg PUBLIC "-//W3C//DTD SVG 1.1//EN" "http://www.w3.org/Graphics/SVG/1.1/DTD/svg11.dtd">
<svg version="1.1" id="Layer_1" xmlns="http://www.w3.org/2000/svg" xmlns:xlink="http://www.w3.org/1999/xlink" x="0px" y="0px"
	 width="600px" height="600px" viewBox="6 96 600 600" enable-background="new 6 96 600 600" xml:space="preserve">
<g>
	<path fill="#FFFFFF" d="M553.614,375.805c14.871,0,27.355,4.896,37.332,14.625c9.976,9.73,14.933,21.91,14.933,36.599
		c0,23.316-11.199,38.923-33.537,46.879l-61.996,21.235l20.196,60.223c1.652,5.018,2.509,10.71,2.509,16.952
		c0,14.197-5.019,26.438-15.116,36.78c-10.097,10.344-22.216,15.483-36.414,15.483c-11.321,0-21.541-3.244-30.845-9.73
		c-9.241-6.486-15.667-15.116-19.277-25.948l-19.828-59.486l-111.69,38.128l19.829,59.119c1.897,5.753,2.876,11.444,2.876,16.952
		c0,14.198-5.019,26.438-15.116,36.781c-10.098,10.343-22.338,15.482-36.781,15.482c-11.322,0-21.481-3.243-30.661-9.729
		c-9.119-6.487-15.483-15.116-19.094-25.949l-19.829-58.752l-55.141,19.095c-6.977,2.143-12.974,3.243-17.993,3.243
		c-14.688,0-26.867-4.835-36.598-14.443c-9.731-9.607-14.627-21.726-14.627-36.414c0-11.32,3.305-21.479,9.915-30.661
		c6.61-9.117,15.178-15.482,25.765-19.094l56.243-19.095l-37.821-112.792l-56.243,19.461c-6.243,1.896-11.996,2.877-17.32,2.877
		c-14.443,0-26.561-4.896-36.414-14.627c-9.853-9.67-14.749-21.727-14.749-36.169c0-11.322,3.305-21.481,9.914-30.661
		c6.61-9.119,15.178-15.484,25.766-19.094l56.61-19.095l-19.094-57.283c-1.897-5.753-2.876-11.383-2.876-16.952
		c0-14.443,5.018-26.745,15.116-36.965c10.098-10.221,22.338-15.3,36.781-15.3c11.322,0,21.481,3.244,30.661,9.731
		c9.119,6.487,15.484,15.116,19.094,25.949l19.462,57.65l111.75-37.822l-19.46-57.65c-1.897-5.752-2.876-11.383-2.876-16.952
		c0-14.198,5.08-26.438,15.3-36.781c10.159-10.343,22.338-15.483,36.536-15.483c11.322,0,21.543,3.305,30.847,9.914
		c9.24,6.61,15.667,15.178,19.276,25.766l19.096,58.018l58.385-19.829c5.019-1.469,10.221-2.142,15.482-2.142
		c14.443,0,26.744,4.773,36.966,14.259c10.221,9.486,15.3,21.298,15.3,35.496c0,10.833-3.61,20.625-10.832,29.376
		s-16.096,14.933-26.685,18.543l-56.608,19.462l37.821,113.893l59.118-20.195C542.782,376.783,548.351,375.805,553.614,375.805
		L553.614,375.805z M267.443,470.235l111.751-37.821l-37.883-113.525L229.56,357.443L267.443,470.235z"/>
</g>
</svg>
